<?xml version="1.0" encoding="UTF-8"?>
<svg xmlns="http://www.w3.org/2000/svg" xmlns:xlink="http://www.w3.org/1999/xlink" width="50pt" height="50pt" viewBox="0 0 50 50" version="1.1">
<g id="surface4453">
<path style="fill:none;stroke-width:2;stroke-linecap:round;stroke-linejoin:miter;stroke:rgb(100%,97.254902%,94.509804%);stroke-opacity:1;stroke-miterlimit:10;" d="M 38.800781 3 L 11.300781 3 C 6.699219 3 3 6.699219 3 11.300781 L 3 38.800781 C 3 43.398438 6.699219 47.101562 11.300781 47.101562 L 38.800781 47.101562 C 43.398438 47.101562 47.101562 43.398438 47.101562 38.800781 L 47.101562 11.300781 C 47 6.699219 43.300781 3 38.800781 3 Z M 38.800781 3 "/>
<path style="fill:none;stroke-width:2;stroke-linecap:round;stroke-linejoin:miter;stroke:rgb(100%,97.254902%,94.509804%);stroke-opacity:1;stroke-miterlimit:10;" d="M 25 47 L 25 28 L 22 28 L 22 22 L 25 22 L 25 19 C 25 14.300781 26.601562 11 32 11 C 34.898438 11 38 12 38 12 L 38 17 L 35 17 C 32.898438 17 32 17.5 32 19 L 32 22 L 38 22 L 37 28 L 32 28 L 32 47 "/>
</g>
</svg>
