<?xml version="1.0" encoding="UTF-8"?>
<svg xmlns="http://www.w3.org/2000/svg" xmlns:xlink="http://www.w3.org/1999/xlink" width="50pt" height="50pt" viewBox="0 0 50 50" version="1.1">
<g id="surface3849">
<path style="fill:none;stroke-width:2;stroke-linecap:butt;stroke-linejoin:miter;stroke:rgb(100%,97.254902%,94.509804%);stroke-opacity:1;stroke-miterlimit:10;" d="M 16 46 L 34 46 C 40.628906 46 46 40.628906 46 34 L 46 16 C 46 9.371094 40.628906 4 34 4 L 16 4 C 9.371094 4 4 9.371094 4 16 L 4 34 C 4 40.628906 9.371094 46 16 46 Z M 16 46 "/>
<path style="fill:none;stroke-width:2;stroke-linecap:butt;stroke-linejoin:miter;stroke:rgb(100%,97.254902%,94.509804%);stroke-opacity:1;stroke-miterlimit:10;" d="M 25 15 C 19.476562 15 15 19.476562 15 25 C 15 30.523438 19.476562 35 25 35 C 30.523438 35 35 30.523438 35 25 C 35 19.476562 30.523438 15 25 15 Z M 25 15 "/>
<path style=" stroke:none;fill-rule:nonzero;fill:rgb(100%,97.254902%,94.509804%);fill-opacity:1;" d="M 37 11 C 35.894531 11 35 11.894531 35 13 C 35 14.105469 35.894531 15 37 15 C 38.105469 15 39 14.105469 39 13 C 39 11.894531 38.105469 11 37 11 Z M 37 11 "/>
</g>
</svg>
