<?xml version="1.0" encoding="UTF-8"?>
<svg xmlns="http://www.w3.org/2000/svg" xmlns:xlink="http://www.w3.org/1999/xlink" width="50pt" height="50pt" viewBox="0 0 50 50" version="1.1">
<g id="surface2045">
<path style=" stroke:none;fill-rule:nonzero;fill:rgb(100%,70.588235%,0%);fill-opacity:1;" d="M 8.59375 5.859375 L 7.03125 5.859375 C 6.367188 5.859375 5.859375 6.367188 5.859375 7.03125 C 5.859375 7.695312 6.367188 8.203125 7.03125 8.203125 L 8.59375 8.203125 C 9.257812 8.203125 9.765625 7.695312 9.765625 7.03125 C 9.765625 6.367188 9.257812 5.859375 8.59375 5.859375 Z M 8.59375 5.859375 "/>
<path style=" stroke:none;fill-rule:nonzero;fill:rgb(100%,70.588235%,0%);fill-opacity:1;" d="M 14.84375 5.859375 L 13.28125 5.859375 C 12.617188 5.859375 12.109375 6.367188 12.109375 7.03125 C 12.109375 7.695312 12.617188 8.203125 13.28125 8.203125 L 14.84375 8.203125 C 15.507812 8.203125 16.015625 7.695312 16.015625 7.03125 C 16.015625 6.367188 15.507812 5.859375 14.84375 5.859375 Z M 14.84375 5.859375 "/>
<path style=" stroke:none;fill-rule:nonzero;fill:rgb(100%,70.588235%,0%);fill-opacity:1;" d="M 44.53125 0.390625 L 5.46875 0.390625 C 2.65625 0.390625 0.390625 2.65625 0.390625 5.46875 L 0.390625 44.53125 C 0.390625 47.34375 2.65625 49.609375 5.46875 49.609375 L 44.53125 49.609375 C 47.34375 49.609375 49.609375 47.34375 49.609375 44.53125 L 49.609375 5.46875 C 49.609375 2.65625 47.34375 0.390625 44.53125 0.390625 Z M 47.265625 44.53125 C 47.265625 46.054688 46.054688 47.265625 44.53125 47.265625 L 5.46875 47.265625 C 3.945312 47.265625 2.734375 46.054688 2.734375 44.53125 L 2.734375 13.671875 L 47.265625 13.671875 Z M 47.265625 11.328125 L 2.734375 11.328125 L 2.734375 5.46875 C 2.734375 3.945312 3.945312 2.734375 5.46875 2.734375 L 44.53125 2.734375 C 46.054688 2.734375 47.265625 3.945312 47.265625 5.46875 Z M 47.265625 11.328125 "/>
<path style=" stroke:none;fill-rule:nonzero;fill:rgb(100%,70.588235%,0%);fill-opacity:1;" d="M 13.007812 37.851562 C 13.632812 38.007812 14.257812 37.617188 14.414062 36.992188 L 14.960938 34.726562 C 15.039062 34.726562 15.117188 34.765625 15.195312 34.765625 L 19.375 34.765625 L 19.921875 36.992188 C 20.039062 37.539062 20.546875 37.890625 21.054688 37.890625 C 21.132812 37.890625 21.25 37.890625 21.328125 37.851562 C 21.953125 37.695312 22.34375 37.070312 22.1875 36.445312 L 19.257812 24.6875 C 19.0625 23.710938 18.203125 23.046875 17.1875 23.046875 C 16.171875 23.046875 15.3125 23.710938 15.078125 24.6875 L 12.148438 36.445312 C 11.992188 37.070312 12.382812 37.695312 13.007812 37.851562 Z M 17.1875 25.9375 L 18.828125 32.421875 L 15.585938 32.421875 Z M 17.1875 25.9375 "/>
<path style=" stroke:none;fill-rule:nonzero;fill:rgb(100%,70.588235%,0%);fill-opacity:1;" d="M 25.390625 37.890625 C 26.054688 37.890625 26.5625 37.382812 26.5625 36.71875 L 26.5625 33.59375 L 28.320312 33.59375 C 31.210938 33.59375 33.59375 31.210938 33.59375 28.320312 C 33.59375 25.429688 31.210938 23.046875 28.320312 23.046875 L 25.390625 23.046875 C 24.726562 23.046875 24.21875 23.554688 24.21875 24.21875 L 24.21875 36.71875 C 24.21875 37.382812 24.726562 37.890625 25.390625 37.890625 Z M 26.5625 25.390625 L 28.320312 25.390625 C 29.921875 25.390625 31.25 26.71875 31.25 28.320312 C 31.25 29.921875 29.921875 31.25 28.320312 31.25 L 26.5625 31.25 Z M 26.5625 25.390625 "/>
<path style=" stroke:none;fill-rule:nonzero;fill:rgb(100%,70.588235%,0%);fill-opacity:1;" d="M 36.71875 37.890625 C 37.382812 37.890625 37.890625 37.382812 37.890625 36.71875 L 37.890625 24.21875 C 37.890625 23.554688 37.382812 23.046875 36.71875 23.046875 C 36.054688 23.046875 35.546875 23.554688 35.546875 24.21875 L 35.546875 36.71875 C 35.546875 37.382812 36.054688 37.890625 36.71875 37.890625 Z M 36.71875 37.890625 "/>
</g>
</svg>
