<?xml version="1.0" encoding="UTF-8"?>
<svg xmlns="http://www.w3.org/2000/svg" xmlns:xlink="http://www.w3.org/1999/xlink" width="50pt" height="50pt" viewBox="0 0 50 50" version="1.1">
<g id="surface1524">
<path style="fill:none;stroke-width:2;stroke-linecap:butt;stroke-linejoin:miter;stroke:rgb(100%,70.588235%,0%);stroke-opacity:1;stroke-miterlimit:10;" d="M 41 45 L 9 45 C 6.789062 45 5 43.210938 5 41 L 5 9 C 5 6.789062 6.789062 5 9 5 L 41 5 C 43.210938 5 45 6.789062 45 9 L 45 41 C 45 43.210938 43.210938 45 41 45 Z M 41 45 "/>
<path style="fill:none;stroke-width:2;stroke-linecap:butt;stroke-linejoin:miter;stroke:rgb(100%,70.588235%,0%);stroke-opacity:1;stroke-miterlimit:10;" d="M 20 22 L 25 22 C 26.101562 22 27 21.101562 27 20 C 27 18.898438 26.101562 18 25 18 L 20 18 C 18.898438 18 18 18.898438 18 20 C 18 21.101562 18.898438 22 20 22 Z M 20 22 "/>
<path style="fill:none;stroke-width:2;stroke-linecap:butt;stroke-linejoin:miter;stroke:rgb(100%,70.588235%,0%);stroke-opacity:1;stroke-miterlimit:10;" d="M 30 28 L 20 28 C 18.898438 28 18 28.898438 18 30 C 18 31.101562 18.898438 32 20 32 L 30 32 C 31.101562 32 32 31.101562 32 30 C 32 28.898438 31.101562 28 30 28 Z M 30 28 "/>
<path style="fill:none;stroke-width:2;stroke-linecap:butt;stroke-linejoin:miter;stroke:rgb(100%,70.588235%,0%);stroke-opacity:1;stroke-miterlimit:10;" d="M 36 22 L 35 22 C 33.894531 22 33 21.105469 33 20 C 33 15.601562 29.398438 12 25 12 L 20 12 C 15.601562 12 12 15.601562 12 20 L 12 30 C 12 34.398438 15.601562 38 20 38 L 30 38 C 34.398438 38 38 34.398438 38 30 L 38 24 C 38 22.894531 37.105469 22 36 22 Z M 36 22 "/>
</g>
</svg>
