<?xml version="1.0" encoding="UTF-8"?>
<svg xmlns="http://www.w3.org/2000/svg" xmlns:xlink="http://www.w3.org/1999/xlink" width="50pt" height="50pt" viewBox="0 0 50 50" version="1.1">
<g id="surface4440">
<path style="fill:none;stroke-width:2;stroke-linecap:round;stroke-linejoin:miter;stroke:rgb(100%,70.588235%,0%);stroke-opacity:1;stroke-miterlimit:10;" d="M 45.019531 25 C 48 28 48 34 42 36 C 45 42 40.632812 44 36 44 C 35.011719 47.976562 30.855469 49.011719 29.003906 49 C 26.722656 48.984375 25 47.320312 25 45 C 25 39 25 16.65625 25 6.65625 C 25 2.140625 26.316406 1 29.003906 1 C 35.007812 1 38.3125 4.5625 39.011719 7 C 44.953125 7.722656 49.894531 14.875 45.019531 25 Z M 45.179688 24 C 45.179688 24 44 29 36 29 M 33 13 C 33 15 35 19 41 19 M 4.984375 25 C 2.210938 28.007812 2 34 8 36 C 5 41 9.371094 45 14 45 C 14.988281 48.976562 19 49 20.996094 49 C 23.277344 49 25 47.320312 25 45 C 25 39 25 16.65625 25 6.65625 C 25 2.140625 23.683594 1 20.996094 1 C 14.992188 1 11.6875 4.5625 10.988281 7 C 5.046875 7.722656 0.105469 14.875 4.984375 25 Z M 4.984375 25 "/>
<path style="fill:none;stroke-width:2;stroke-linecap:round;stroke-linejoin:miter;stroke:rgb(100%,70.588235%,0%);stroke-opacity:1;stroke-miterlimit:10;" d="M 17 24 C 17 24 14.902344 22 11 22 C 7.59375 22 4.984375 25 4.984375 25 M 16.992188 39 C 16.992188 38 17 32 10.988281 31 M 18.992188 11 C 18.992188 12 18 15 13 15 M 36 44 C 33 43 31 41 31 37 "/>
</g>
</svg>
