<?xml version="1.0" encoding="UTF-8"?>
<svg xmlns="http://www.w3.org/2000/svg" xmlns:xlink="http://www.w3.org/1999/xlink" width="50pt" height="50pt" viewBox="0 0 50 50" version="1.1">
<g id="surface9307">
<path style="fill:none;stroke-width:2;stroke-linecap:butt;stroke-linejoin:miter;stroke:rgb(100%,70.588235%,0%);stroke-opacity:1;stroke-miterlimit:10;" d="M 5 14 L 45 14 "/>
<path style=" stroke:none;fill-rule:nonzero;fill:rgb(100%,70.588235%,0%);fill-opacity:1;" d="M 8 10 C 7.449219 10 7 10.449219 7 11 C 7 11.550781 7.449219 12 8 12 C 8.550781 12 9 11.550781 9 11 C 9 10.449219 8.550781 10 8 10 Z M 11 10 C 10.449219 10 10 10.449219 10 11 C 10 11.550781 10.449219 12 11 12 C 11.550781 12 12 11.550781 12 11 C 12 10.449219 11.550781 10 11 10 Z M 14 10 C 13.449219 10 13 10.449219 13 11 C 13 11.550781 13.449219 12 14 12 C 14.550781 12 15 11.550781 15 11 C 15 10.449219 14.550781 10 14 10 Z M 14 10 "/>
<path style="fill:none;stroke-width:2;stroke-linecap:butt;stroke-linejoin:miter;stroke:rgb(100%,70.588235%,0%);stroke-opacity:1;stroke-miterlimit:10;" d="M 43 42 L 7 42 C 5.894531 42 5 41.105469 5 40 L 5 10 C 5 8.894531 5.894531 8 7 8 L 43 8 C 44.105469 8 45 8.894531 45 10 L 45 40 C 45 41.105469 44.105469 42 43 42 Z M 43 42 "/>
<path style="fill:none;stroke-width:2;stroke-linecap:round;stroke-linejoin:miter;stroke:rgb(100%,70.588235%,0%);stroke-opacity:1;stroke-miterlimit:10;" d="M 14 30 L 20 24 L 28 33 L 36 23 "/>
<path style=" stroke:none;fill-rule:nonzero;fill:rgb(100%,70.588235%,0%);fill-opacity:1;" d="M 36 21 C 34.894531 21 34 21.894531 34 23 C 34 24.105469 34.894531 25 36 25 C 37.105469 25 38 24.105469 38 23 C 38 21.894531 37.105469 21 36 21 Z M 28 31 C 26.894531 31 26 31.894531 26 33 C 26 34.105469 26.894531 35 28 35 C 29.105469 35 30 34.105469 30 33 C 30 31.894531 29.105469 31 28 31 Z M 14 28 C 12.894531 28 12 28.894531 12 30 C 12 31.105469 12.894531 32 14 32 C 15.105469 32 16 31.105469 16 30 C 16 28.894531 15.105469 28 14 28 Z M 20 22 C 18.894531 22 18 22.894531 18 24 C 18 25.105469 18.894531 26 20 26 C 21.105469 26 22 25.105469 22 24 C 22 22.894531 21.105469 22 20 22 Z M 20 22 "/>
</g>
</svg>
