<svg width="2500" height="2500" viewBox="0 0 2500 2500" fill="none" xmlns="http://www.w3.org/2000/svg">
<path fill-rule="evenodd" clip-rule="evenodd" d="M1810.58 1101.2C1838.4 1101.2 1867.62 1119.3 1867.62 1159.11C1867.62 1214.64 1814.39 1258.34 1767 1258.34H1701.57L1703.37 1253.29C1709.83 1253.29 1720.57 1252.71 1729.63 1229.18C1730.98 1225.76 1767.69 1126.19 1768.28 1124.58C1769.44 1121.9 1770.06 1119.01 1770.11 1116.09C1770.11 1103.52 1752.94 1105.82 1752.94 1105.82L1755.12 1101.18L1810.58 1101.2V1101.2ZM1796.9 1110.68C1796.1 1112.74 1749.78 1235.8 1748.74 1238.53C1747.07 1243.06 1746.11 1250.08 1758.82 1250.08C1816.14 1250.08 1843.28 1193.65 1843.28 1153.73C1843.28 1123 1823.19 1109.82 1808.52 1109.82H1798.66C1797.86 1109.82 1797.19 1109.9 1796.9 1110.68ZM1959.6 1170.53C1959.6 1194.94 1925.48 1212.41 1891.16 1212.41C1890.04 1212.41 1887.92 1225.05 1887.92 1227.61C1887.92 1234.42 1891.8 1249.29 1908.69 1249.29C1923.9 1249.29 1939.93 1234.57 1939.93 1234.57L1942.43 1237.56C1942.43 1237.56 1919.28 1260.58 1896.27 1260.58C1875.17 1260.58 1868.38 1245.82 1868.38 1231.4C1868.38 1195.05 1907.29 1153.19 1939.49 1153.19C1953.27 1153.22 1959.6 1159.55 1959.6 1170.53ZM1904.4 1184.61C1896.4 1195.25 1892.63 1206.36 1892.63 1206.36C1918.08 1206.36 1944.61 1187.15 1944.61 1169.43C1944.61 1165.46 1942.94 1160.56 1935.81 1160.56C1925.69 1160.57 1910.54 1175.48 1904.4 1184.61V1184.61ZM2033.11 1096.04V1164.52H2033.85C2033.85 1164.52 2045.2 1147.56 2066.01 1147.56C2091.57 1147.56 2106.72 1173.39 2106.72 1199.37C2106.72 1229.64 2089.29 1261 2055.19 1261C2037.61 1261 2019.31 1252.15 2014.1 1248.16C2013.7 1247.86 2013.65 1247.39 2013.65 1246.89V1125.27C2013.65 1119.86 2009.9 1115.48 2005.36 1115.48C2000.87 1115.48 1997.71 1117.85 1997.71 1117.85V1113.05C2013.96 1107.02 2033.11 1096.04 2033.11 1096.04V1096.04ZM2033.17 1235.11C2033.17 1240.47 2040.69 1251.65 2055.31 1251.65C2078.81 1251.65 2086.85 1228.29 2086.85 1208.13C2086.85 1181.35 2072.89 1164.48 2055.69 1164.48C2043 1164.48 2033.18 1172.75 2033.18 1180.26L2033.17 1235.11ZM2132.64 1176.12C2132.64 1161.16 2151.33 1146.98 2170.17 1146.98C2191.01 1146.98 2203.94 1158.84 2203.94 1177.91V1238.86C2203.94 1241.5 2204.68 1246.46 2210.7 1246.46C2217.39 1246.46 2221.94 1240.61 2221.94 1240.61L2225.18 1243.01C2225.18 1243.01 2213.94 1260.82 2200.71 1260.82C2185.96 1260.82 2185.18 1244.97 2185.18 1244.97C2185.18 1244.97 2184.78 1244.76 2184.55 1244.97C2181.73 1247.57 2169.3 1260.44 2153.11 1260.44C2139.34 1260.44 2127.35 1250.51 2127.35 1236.51C2127.35 1219.39 2138.01 1206.11 2167.56 1195.55C2177.55 1192.03 2184.78 1189.12 2184.78 1189.12L2184.81 1172.19C2184.81 1164.5 2180.24 1153.82 2167.16 1153.82C2154.87 1153.82 2151.02 1164.23 2151.02 1168.85C2151.02 1171.31 2152.16 1174.32 2152.16 1177.51C2152.16 1180.66 2150.28 1186.97 2142.41 1186.97C2136.56 1186.94 2132.64 1183.08 2132.64 1176.12V1176.12ZM2184.06 1197.84C2179.52 1197.84 2146.87 1207.34 2146.87 1228.59C2146.87 1240.26 2156.44 1246.84 2165.06 1246.84C2175.5 1246.84 2184.78 1238.48 2184.78 1236.29V1198.56C2184.8 1198 2184.67 1197.84 2184.06 1197.84V1197.84ZM2256.71 1258.3L2228.75 1258.51V1254.1C2228.75 1254.1 2245.14 1254.66 2245.14 1244.51C2245.2 1232.91 2245.14 1175.96 2245.14 1172.64C2245.14 1169.42 2241.82 1164.31 2234.2 1164.31C2232.34 1164.31 2228.35 1164.96 2228.35 1164.96V1160.95C2228.35 1160.95 2249 1154.44 2264.36 1145.1V1169.55C2264.36 1169.85 2264.84 1169.85 2265 1169.55C2273.53 1156.19 2285.44 1146.19 2300.93 1146.19C2311.13 1146.19 2330.8 1151.94 2330.8 1181.25V1240.35C2330.8 1253.81 2346.5 1253.63 2346.5 1253.63V1258.5L2321.91 1258.29H2256.71V1258.3V1258.3ZM2321.89 1258.3L2292.89 1258.51V1253.99C2292.89 1253.99 2311.63 1255.46 2311.63 1242.18V1185.58C2311.63 1171.68 2306.5 1163.6 2290.98 1163.6C2274.87 1163.6 2264.74 1175.01 2264.74 1180.92V1241.05C2264.74 1256.12 2283.48 1253.99 2283.48 1253.99V1258.51L2256.71 1258.3H2321.89ZM2354.8 1112.7V1116.68C2354.8 1116.68 2360.2 1114.56 2363.7 1114.56C2369.81 1114.56 2371.35 1118.07 2371.35 1121.3V1240.27C2371.35 1251.87 2363.75 1253.99 2354.82 1253.99V1258.56L2381.74 1258.3L2406.24 1258.56V1253.99C2398.95 1253.99 2390.35 1250.27 2390.35 1240.84V1203.28C2390.35 1202.76 2391.07 1202.45 2391.71 1203.31C2397.69 1211.26 2424.22 1246.13 2424.22 1249.51C2424.22 1252.48 2420.37 1253.99 2414.52 1253.99V1258.48L2439.44 1258.27L2463.26 1258.48V1253.92C2460.57 1253.92 2451.67 1252.02 2443.43 1240.8L2407.49 1192.01C2407.49 1192.01 2411.23 1187.33 2416.89 1180.68C2432.52 1162.36 2443.62 1154.08 2457.55 1154.08V1149.63H2411.12V1153.83C2411.12 1153.83 2423.13 1153.28 2423.13 1158.12C2423.13 1159.77 2421.45 1162.1 2409.44 1175.89C2400.48 1186.2 2391.05 1196.82 2391.21 1196.62C2390.57 1197.34 2390.4 1197.1 2390.38 1196.75C2390.28 1195.9 2390.38 1095.49 2390.38 1095.49C2390.38 1095.49 2380.66 1103.6 2354.8 1112.7V1112.7Z" fill="black"/>
<path fill-rule="evenodd" clip-rule="evenodd" d="M36.7559 1045.91H339.73V1299.36L188.256 1453.94L36.7559 1299.36V1045.91V1045.91Z" fill="#579376"/>
<path fill-rule="evenodd" clip-rule="evenodd" d="M188.256 1144.79L339.911 1299.36L188.256 1454.11V1144.79V1144.79Z" fill="#ECB731"/>
<path fill-rule="evenodd" clip-rule="evenodd" d="M421.88 1255.41L468.351 1086.65H514.562L560.151 1255.41H523.187L513.887 1218H466.016L456.496 1255.41H421.88ZM489.465 1119.15H489.024L472.994 1192.09H506.443L489.465 1119.15V1119.15ZM594.754 1255.41V1086.65H657.048C683.752 1086.65 705.84 1094.35 705.84 1130.34C705.84 1149.76 696.333 1163.8 677.255 1167.54V1167.98C702.118 1171.51 708.615 1187.64 708.615 1210.78C708.615 1253.54 671.665 1255.41 656.814 1255.41H594.754ZM629.863 1229.47H649.383C656.814 1229.47 673.558 1229.24 673.558 1205.6C673.558 1190.68 667.981 1181.53 650.316 1181.53H629.876V1229.47H629.863ZM629.863 1155.61H653.325C660.99 1155.61 671.678 1150.44 671.678 1134.1C671.678 1121.7 663.312 1112.61 651.471 1112.61H629.863V1155.61ZM754.061 1255.41V1086.65H801.479L846.095 1203.5H846.549V1086.65H879.31V1255.41H833.086L787.303 1131.99H786.836V1255.41H754.061ZM964.029 1255.41L1010.5 1086.65H1056.75L1102.3 1255.41H1065.35L1056.04 1218H1008.17L998.645 1255.41H964.029ZM1031.64 1119.15H1031.17L1015.14 1192.09H1048.6L1031.64 1119.15V1119.15ZM1136.2 1255.41V1086.65H1192.66L1218.92 1201.43H1219.38L1247.28 1086.65H1301.87V1255.41H1267.72V1125.2H1267.24L1234.95 1255.41H1201.49L1170.81 1125.2H1170.34V1255.41H1136.2V1255.41ZM1381.84 1255.41H1346.75V1086.65H1411.58C1435.52 1086.65 1450.84 1102.05 1450.84 1130.82C1450.84 1152.32 1442.47 1168.45 1419.73 1172.18V1172.67C1427.39 1173.6 1450.16 1175.48 1450.16 1205.85C1450.16 1216.6 1450.85 1248.43 1454.09 1255.42H1419.75C1415.09 1245.14 1416 1233.7 1416 1222.71C1416 1202.61 1417.88 1185.53 1390.89 1185.53H1381.85V1255.41H1381.84V1255.41ZM1381.84 1159.59H1397.39C1411.32 1159.59 1415.3 1145.54 1415.3 1134.79C1415.3 1118.66 1408.55 1112.61 1397.39 1112.61H1381.84V1159.59ZM1492.51 1171.01C1492.51 1126.37 1492.51 1083.84 1550.39 1083.84C1608.25 1083.84 1608.25 1126.37 1608.25 1171.01C1608.25 1215.19 1608.25 1258.2 1550.39 1258.2C1492.51 1258.2 1492.51 1215.19 1492.51 1171.01ZM1572.71 1171.01C1572.71 1127.77 1570.16 1109.08 1550.39 1109.08C1530.63 1109.08 1528.1 1127.77 1528.1 1171.01C1528.1 1214.26 1530.63 1232.96 1550.39 1232.96C1570.16 1232.96 1572.71 1214.27 1572.71 1171.01ZM930.541 1184.17L952.629 1161.95L930.541 1139.76L908.441 1161.95L930.541 1184.17Z" fill="black"/>
</svg>
