<svg width="2500" height="2500" viewBox="0 0 2500 2500" fill="none" xmlns="http://www.w3.org/2000/svg">
<path fill-rule="evenodd" clip-rule="evenodd" d="M1250.18 1272.5C1164.2 1342.77 1093.18 1090.82 1000.1 1091.94C950.385 1092.31 919.349 1162.6 894.317 1212.31C1002.36 1134.93 1046.09 1387.26 1157.49 1389.87C1204.58 1391.01 1236.36 1323.34 1250.18 1272.5Z" fill="#CC1D50"/>
<path fill-rule="evenodd" clip-rule="evenodd" d="M2351.07 1411.94V1432.5C2359.68 1429.51 2372.01 1423.9 2388.46 1413.06C2396.31 1425.39 2400.42 1429.89 2419.5 1429.89H2463.24V1413.81L2446.77 1413.45C2438.19 1413.07 2432.56 1394 2432.56 1380.55V1283.72C2432.56 1216.43 2400.79 1204.1 2359.3 1204.1H2351.07V1224.28C2372.4 1226.9 2377.99 1249.7 2377.99 1269.13V1297.17C2368.27 1297.17 2359.68 1297.53 2351.07 1298.66V1316.22C2357.07 1315.47 2364.54 1315.85 2372.75 1317.35L2377.99 1318.09V1364.45C2378.01 1386.9 2366.77 1408.96 2351.07 1411.94V1411.94Z" fill="black"/>
<path fill-rule="evenodd" clip-rule="evenodd" d="M2351.07 1224.28V1204.1H2350.72C2302.87 1205.97 2276.7 1226.9 2276.7 1260.54C2276.7 1281.87 2286.78 1294.2 2303.25 1294.2C2322.68 1294.2 2333.14 1281.87 2333.14 1260.93C2333.14 1245.98 2323.42 1242.61 2323.42 1237.38C2323.42 1228.78 2331.65 1223.92 2346.59 1223.92C2348.08 1223.92 2349.6 1223.54 2350.72 1223.92V1224.29H2351.07V1224.28V1224.28ZM2351.07 1316.24V1298.68C2295.39 1304.28 2263.25 1327.83 2265.09 1380.54C2266.23 1406.7 2272.21 1438.85 2334.62 1435.48C2336.11 1435.48 2340.98 1435.1 2350.7 1432.5H2351.06V1411.56H2348.45C2327.14 1411.56 2324.16 1390.26 2324.16 1359.61C2324.16 1335.3 2332 1319.61 2350.7 1316.24H2351.07ZM2094.64 1414.55V1431.75H2095.02V1432.11H2096.51V1414.92H2095.02V1414.55H2094.64ZM2094.64 1210.08V1237.74C2096.52 1235.88 2097.63 1234.76 2099.13 1234.01C2096.9 1239.24 2095.41 1241.85 2094.64 1247.83V1257.92C2096.52 1277.35 2108.86 1291.18 2122.68 1291.18C2139.88 1291.18 2151.84 1273.62 2151.84 1250.06C2151.84 1223.52 2136.13 1203.33 2115.56 1203.33C2108.47 1203.33 2101.74 1205.58 2095.02 1209.69L2094.64 1210.08ZM2094.64 1257.92V1247.83V1257.92ZM2172.03 1147.28C2172.03 1167.84 2185.86 1185.79 2203.42 1185.79C2221.76 1185.79 2235.95 1167.85 2235.95 1147.28C2235.95 1125.59 2221.76 1108.03 2203.42 1108.03C2186.6 1108.02 2172.03 1125.59 2172.03 1147.28ZM2156.7 1432.89H2259.11V1416.05C2239.31 1416.05 2234.44 1410.07 2234.44 1398.11V1208.95L2154.45 1209.33V1232.87H2180.62V1398.1C2180.62 1409.31 2175.41 1416.04 2156.7 1416.04V1432.89V1432.89Z" fill="black"/>
<path fill-rule="evenodd" clip-rule="evenodd" d="M2094.64 1237.74V1210.08C2083.06 1218.68 2072.22 1236.99 2064.75 1270.27V1210.46H1986.24V1234.01C2005.67 1234.01 2013.14 1242.23 2013.14 1254.2V1395.51C2013.14 1407.84 2006.79 1414.57 1986.59 1414.57V1431.77H2094.63V1414.57C2077.06 1414.57 2068.08 1407.84 2068.08 1394.39V1334.58C2068.09 1308.03 2081.57 1255.3 2094.64 1237.74V1237.74ZM1802.32 1285.59V1426.52H1802.69C1826.99 1417.17 1842.69 1393.99 1842.69 1346.88C1842.69 1329.32 1829.59 1299.78 1802.69 1286.33V1285.95C1802.69 1285.59 1802.69 1285.59 1802.32 1285.59ZM1802.32 1206.34V1244.85L1802.69 1245.21V1246.72C1810.17 1257.79 1815.73 1270.05 1819.14 1282.97L1833.73 1282.61L1834.08 1216.81C1823.97 1212.53 1813.46 1209.27 1802.69 1207.1V1206.34H1802.32V1206.34ZM1872.96 1377.54C1872.96 1409.32 1883.43 1434.38 1913.34 1434.38C1945.87 1434.38 1953.34 1432.89 1974.26 1428.76V1409.7C1954.83 1411.56 1927.54 1412.3 1927.54 1377.54V1234.01H1974.26V1210.46H1927.54V1165.59H1873.72L1872.95 1210.46H1849.77V1234.01H1872.95V1377.54H1872.96V1377.54Z" fill="black"/>
<path fill-rule="evenodd" clip-rule="evenodd" d="M1802.32 1244.84V1206.33C1786.26 1202.58 1769.41 1200.35 1758.22 1200.35C1719.71 1200.35 1695.04 1229.13 1695.04 1277.35C1695.04 1319.97 1714.85 1337.92 1756.35 1344.64C1792.25 1350.62 1800.84 1368.18 1800.84 1380.54C1800.84 1400.72 1790.37 1413.43 1770.92 1413.06C1748.12 1412.3 1718.96 1388.39 1707.74 1341.28H1694.29V1422.03C1724.21 1431.38 1740.27 1431.76 1769.43 1431.76C1781.76 1431.76 1792.6 1430.27 1802.33 1426.53V1285.59C1795.97 1282.42 1789.16 1280.28 1782.14 1279.23C1745.51 1273.62 1734.29 1265.03 1734.29 1244.85C1734.29 1232.14 1738.04 1219.81 1763.1 1219.81C1777.65 1219.79 1791.47 1229.88 1802.32 1244.84V1244.84ZM1462.9 1405.95V1428.01H1471.11V1405.95C1468.13 1406.32 1465.89 1406.32 1462.9 1406.32V1405.95ZM1462.9 1204.1V1234.37C1475.6 1236.62 1480.84 1244.1 1480.84 1253.81V1367.08C1480.84 1384.28 1481.95 1399.61 1486.81 1408.57C1494.29 1421.65 1511.48 1429.89 1530.56 1429.89C1558.95 1429.89 1570.91 1427.63 1595.97 1395.87V1427.63L1681.21 1428.39L1681.58 1404.85C1661.39 1405.6 1646.42 1401.47 1646.42 1383.16V1204.84H1564.93V1234.75C1586.24 1234.75 1594.09 1240.73 1594.09 1254.19V1327.83C1594.09 1386.9 1570.17 1393.61 1551.48 1393.61C1539.52 1393.61 1532.4 1384.65 1532.4 1364.46V1204.1L1462.9 1204.46V1204.1ZM1462.9 1234.37V1204.1H1454.29V1233.63C1457.66 1233.63 1460.27 1233.63 1462.9 1234.01V1234.37Z" fill="black"/>
<path fill-rule="evenodd" clip-rule="evenodd" d="M1462.9 1428.02V1405.96C1448.68 1405.22 1441.59 1399.62 1435.97 1383.16L1350.76 1125.97V1124.1L1350.39 1122.6V1331.19L1350.76 1332.68V1333.8L1367.21 1383.89C1370.93 1395.48 1370.93 1404.08 1350.76 1405.94H1350.39V1428H1462.9V1428.02V1428.02ZM1350.37 1331.2V1122.6L1331.29 1064.29L1293.55 1159.61L1350.37 1331.2V1331.2ZM1350.37 1428.02V1405.96H1343.63V1428.02H1350.37ZM825.162 1406.34V1421.65H833.009V1406.7H825.526C825.526 1406.34 825.162 1406.34 825.162 1406.34V1406.34ZM825.162 1314.75V1339.78L860.674 1396.6C868.52 1409.31 854.318 1406.69 847.587 1406.69V1421.64H950.009V1406.69C944.406 1406.69 934.692 1408.57 927.208 1396.6L855.071 1275.11L825.539 1313.99L825.175 1314.37V1314.75H825.162V1314.75ZM825.162 1338.3V1314.75L816.927 1325.59L825.162 1338.3Z" fill="black"/>
<path fill-rule="evenodd" clip-rule="evenodd" d="M825.162 1421.28V1406.34C810.948 1405.22 807.588 1399.61 807.588 1389.52V1099.8L726.475 1100.17V1116.24C745.917 1116.24 752.648 1127.09 752.648 1137.55V1389.52C752.648 1402.97 747.033 1406.7 726.475 1406.7V1421.28H825.162V1421.28ZM710.756 1404.83V1421.65H718.603V1404.83H710.756ZM710.756 1421.28V1404.83C698.059 1404.08 693.558 1401.1 693.558 1389.88V1276.99C693.558 1225.77 689.071 1204.1 645.337 1198.86C640.11 1198.11 604.586 1191.38 578.049 1239.24V1198.86H492.073V1228.77C516.002 1228.77 520.114 1233.63 520.114 1245.21V1389.52C520.114 1401.11 513.006 1404.85 495.069 1404.85V1421.29H598.996V1404.85C582.174 1404.85 578.062 1399.98 578.062 1389.89V1285.6C578.062 1243.36 600.111 1221.3 619.553 1221.3C631.511 1221.3 637.114 1232.52 637.114 1251.22V1389.89C637.114 1399.98 631.135 1404.85 615.065 1404.85V1421.29H710.756V1421.28V1421.28ZM376.94 1402.97V1423.54C385.902 1420.55 397.873 1414.94 414.319 1404.46C422.166 1416.05 426.277 1420.92 445.343 1420.92H489.09V1404.85H472.644C464.045 1404.47 458.429 1385.04 458.429 1371.58V1274.76C458.429 1207.47 426.653 1195.14 385.163 1195.14C382.543 1195.14 379.923 1195.51 377.316 1195.51H376.94V1215.69C398.25 1218.31 403.853 1240.74 403.853 1260.54V1288.21C394.501 1288.21 385.539 1288.96 376.94 1289.34V1307.65C384.145 1306.43 391.522 1306.69 398.626 1308.4L403.853 1309.53V1355.51C403.853 1377.92 393.01 1399.97 376.94 1402.97V1402.97ZM376.94 1215.31V1195.5C328.719 1197.37 302.559 1217.56 302.559 1251.57C302.559 1272.88 312.649 1285.21 329.095 1285.21C348.537 1285.21 359.003 1272.88 359.003 1252.32C359.003 1236.99 349.652 1234.01 349.652 1228.39C349.652 1219.79 358.251 1214.93 372.829 1214.93C373.957 1214.93 375.449 1214.93 376.94 1215.31V1215.31ZM376.94 1307.64V1289.32C321.248 1294.94 289.472 1319.23 290.964 1371.57C291.716 1398.11 297.695 1430.25 360.495 1426.52C361.986 1426.52 366.85 1426.52 376.94 1423.9V1402.97H373.957C353.4 1402.97 349.652 1381.28 349.652 1351.01C349.652 1326.7 358.251 1310.63 376.94 1307.64V1307.64ZM241.251 1261.66V1407.08H241.627C268.163 1391.75 283.117 1365.2 283.117 1331.57C283.117 1298.68 268.915 1275.5 241.627 1262.41V1261.66H241.251V1261.66ZM241.251 1109.15V1235.88L241.627 1235.5C258.072 1225.03 272.663 1205.97 272.663 1171.95C272.663 1145.41 261.821 1124.1 241.627 1110.28V1109.52C241.614 1109.51 241.614 1109.15 241.251 1109.15Z" fill="black"/>
<path fill-rule="evenodd" clip-rule="evenodd" d="M241.251 1235.88V1109.15C226.673 1099.81 207.231 1094.19 183.678 1094.19H169.839V1118.5C170.967 1118.88 172.083 1119.25 173.211 1119.25V1120C201.615 1127.11 208.722 1151.78 208.722 1173.09C208.722 1218.31 199.747 1235.89 173.211 1240.38C172.083 1240.75 170.967 1240.75 169.839 1241.13V1266.93C170.967 1266.93 172.083 1266.93 173.211 1267.3V1267.66C210.59 1275.14 215.454 1307.66 215.454 1331.97C215.454 1366.74 207.97 1393.28 173.211 1398.14C172.083 1398.14 170.967 1398.5 169.839 1398.5V1421.3H180.682C204.611 1421.3 224.792 1416.08 241.238 1407.1V1261.66C228.903 1256.04 214.325 1251.93 196.751 1250.06C203.483 1248.95 223.677 1247.08 241.251 1235.88V1235.88ZM169.839 1118.49V1094.18H107.792V1421.27H169.839V1398.46C166.62 1398.92 163.375 1399.17 160.125 1399.22C136.196 1399.22 130.956 1401.46 130.956 1385.02V1279.22C130.956 1269.13 136.196 1266.52 157.492 1266.52C161.979 1266.52 166.091 1266.52 169.826 1266.89V1241.09C165.715 1241.47 160.864 1241.47 156 1241.47C135.819 1241.47 130.956 1244.09 130.956 1228.02V1130.44C130.956 1119.98 135.819 1117.36 153.757 1117.36C159.749 1117.36 164.988 1117.75 169.839 1118.49V1118.49ZM107.792 1421.28V1094.19H36.7563V1118.12C55.8219 1118.12 64.797 1119.99 64.797 1130.46V1380.93C64.797 1391.77 59.5572 1396.62 36.7563 1396.62V1421.29H107.792V1421.28V1421.28Z" fill="black"/>
</svg>
