<svg width="2500" height="2500" viewBox="0 0 2500 2500" fill="none" xmlns="http://www.w3.org/2000/svg">
<path d="M1278.48 199.501H1568.86V1122.39C1568.86 1142.73 1574.39 1185.27 1638.7 1201.91C1703.05 1220.4 1949.32 1290.69 1949.32 1290.69C1949.32 1290.69 2008.11 1316.57 2008.11 1390.54V1719.75C2008.11 1719.75 2019.16 1943.56 1739.79 1880.65C1462.26 1817.78 1278.48 1784.47 1278.48 1784.47V1481.17L1668.11 1573.63C1668.11 1573.63 1715.91 1582.88 1726.92 1555.14C1737.95 1525.56 1706.7 1514.45 1679.14 1507.06C1649.73 1497.81 1385.07 1427.54 1385.07 1427.54C1385.07 1427.54 1278.47 1409.05 1278.47 1305.47L1278.48 199.501V199.501ZM1201.3 199.501H910.905V1122.39C910.905 1142.73 905.393 1185.27 841.076 1201.91C776.746 1220.4 530.476 1290.69 530.476 1290.69C530.476 1290.69 471.671 1316.57 471.671 1390.54V1719.75C471.671 1719.75 460.647 1943.56 739.99 1880.65C1019.35 1817.78 1201.3 1784.47 1201.3 1784.47V1481.17L813.502 1573.63C813.502 1573.63 763.88 1582.88 752.856 1555.14C741.819 1525.56 773.076 1514.45 800.636 1507.06C830.039 1497.81 1094.69 1427.54 1094.69 1427.54C1094.69 1427.54 1201.29 1409.05 1201.29 1305.47L1201.3 199.501V199.501Z" stroke="#0A578B" stroke-width="38.2867" stroke-miterlimit="2.613"/>
<path fill-rule="evenodd" clip-rule="evenodd" d="M1046.92 2026.79V1980.56C1046.92 1971.31 1045.08 1965.76 1043.24 1960.22C1037.74 1950.98 1026.7 1947.25 1015.68 1947.25C1012 1947.25 1000.98 1947.25 991.785 1956.53V1949.14H978.919V2026.8H993.627V1984.27C993.627 1969.47 1000.98 1960.22 1013.85 1960.22C1032.22 1960.22 1032.22 1978.72 1032.22 1984.27V2026.8H1046.92V2026.79V2026.79ZM1068.97 2026.79V2010.13H1083.68V2026.79H1068.97ZM1138.81 2026.79H1127.79L1098.37 1949.11H1113.08L1133.3 2004.59L1153.52 1949.11H1170.05L1138.81 2026.79ZM1170.05 2026.79V2010.13H1184.76V2026.79H1170.05ZM1197.62 1993.49V1978.69H1236.21V1993.49H1197.62ZM1315.24 1969.46C1315.24 1963.91 1311.57 1960.21 1306.07 1960.21C1300.54 1960.21 1296.87 1963.91 1296.87 1967.6C1296.87 1975 1302.37 1976.85 1307.9 1978.69C1315.24 1980.55 1331.79 1986.09 1331.79 2004.58C1331.79 2017.52 1322.59 2028.63 1306.08 2028.63C1296.89 2028.63 1278.49 2023.08 1278.49 2000.88H1293.19C1293.19 2010.13 1298.71 2015.68 1306.08 2015.68C1313.42 2015.68 1317.11 2011.99 1317.11 2004.59C1317.11 1997.2 1311.58 1995.35 1304.24 1993.5C1295.04 1989.81 1282.18 1986.11 1282.18 1969.46C1282.18 1958.37 1291.37 1947.24 1306.09 1947.24C1315.26 1947.24 1329.98 1952.82 1329.98 1969.46H1315.24V1969.46ZM1350.18 2026.79V2010.13H1364.86V2026.79H1350.18ZM1451.25 1987.94C1451.25 2002.74 1438.39 2015.68 1423.69 2015.68C1407.15 2015.68 1396.1 2002.74 1396.1 1987.94C1396.1 1975 1405.3 1960.2 1423.69 1960.2C1438.37 1960.21 1451.25 1971.3 1451.25 1987.94ZM1464.12 2026.79V1949.12H1449.4V1960.21C1443.9 1950.96 1434.7 1947.24 1423.69 1947.24C1418.23 1947.11 1412.8 1948.06 1407.72 1950.04C1402.63 1952.02 1397.98 1954.98 1394.05 1958.77C1390.12 1962.56 1386.98 1967.09 1384.81 1972.1C1382.64 1977.1 1381.48 1982.49 1381.41 1987.95C1381.41 2008.29 1397.95 2028.64 1423.69 2028.64C1434.72 2028.64 1443.91 2024.94 1449.4 2015.7V2026.79H1464.12ZM1500.87 2026.79V2010.13H1486.18V2026.79H1500.87ZM491.878 2115.54H534.147C598.477 2115.54 620.526 2161.79 620.526 2193.23C620.526 2250.55 574.587 2269.05 532.305 2269.05H491.878V2115.54ZM456.964 2296.79H532.318C565.404 2296.79 598.49 2289.4 624.209 2267.21C642.587 2250.57 655.466 2220.98 655.466 2193.24C655.466 2172.9 648.112 2147.01 629.734 2126.67C613.198 2104.45 583.795 2087.81 534.16 2087.81H456.977V2296.79H456.964V2296.79ZM741.832 2202.47H776.746C787.784 2202.47 804.307 2202.47 815.344 2215.42C819.015 2220.97 822.698 2228.36 822.698 2235.75C822.698 2246.84 815.344 2269.03 780.43 2269.03H741.832V2202.47ZM708.746 2296.79H778.575C844.747 2296.79 857.6 2257.96 857.6 2235.77C857.6 2202.49 831.881 2189.54 822.698 2185.83C830.039 2178.44 842.905 2169.19 842.905 2145.15C842.905 2130.35 835.564 2087.79 769.392 2087.79H708.746V2296.79V2296.79ZM741.832 2115.54H769.392C776.746 2115.54 807.991 2115.54 807.991 2145.15C807.991 2158.09 802.478 2174.73 771.234 2174.73H741.819V2115.54H741.832V2115.54ZM1008.32 2296.79V2087.81H1043.24V2296.79H1008.32ZM1256.43 2296.79L1140.65 2135.91H1138.81V2296.79H1105.72V2087.81H1142.48L1258.27 2246.86V2087.81H1293.18V2296.79H1256.43V2296.79ZM1429.18 2296.79L1333.63 2087.81H1372.21L1440.23 2245.01L1510.07 2087.81H1544.97L1451.25 2296.79H1429.18ZM1583.58 2296.79V2087.81H1712.24V2115.54H1618.48V2176.59H1712.24V2204.33H1618.48V2269.05H1712.24V2296.79H1583.58V2296.79ZM1783.9 2233.91C1783.9 2241.31 1787.57 2272.74 1820.66 2272.74C1842.72 2272.74 1859.27 2259.83 1859.27 2237.61C1859.27 2213.56 1837.21 2208.02 1820.66 2202.47C1789.43 2193.23 1782.07 2189.53 1771.03 2180.28C1760.01 2171.03 1754.5 2154.39 1754.5 2139.6C1754.5 2115.54 1776.56 2084.1 1820.67 2084.1C1861.1 2084.1 1888.68 2106.29 1888.68 2141.45H1855.6C1855.6 2119.26 1835.38 2111.84 1820.67 2111.84C1800.45 2111.84 1789.44 2128.51 1789.44 2139.61C1789.44 2159.95 1811.47 2165.5 1820.67 2169.19C1851.93 2178.44 1894.18 2187.69 1894.18 2237.61C1894.18 2274.6 1864.77 2300.51 1820.67 2300.51C1789.44 2300.51 1749.01 2281.99 1749.01 2233.91H1783.9ZM1964.01 2296.79V2115.54H1918.06V2087.81H2043.04V2115.54H1998.94V2296.79H1964.01V2296.79Z" fill="black"/>
</svg>
