<svg width="2500" height="2500" viewBox="0 0 2500 2500" fill="none" xmlns="http://www.w3.org/2000/svg">
<path fill-rule="evenodd" clip-rule="evenodd" d="M2141.3 1494.84L2228.71 1210.47H2118.95L2143.27 1139.25H2463.23L2445.07 1210.47H2332.37L2244.94 1494.84H2141.3ZM1361.86 1494.84L1464.51 1139.25H1740.28L1718.92 1210.47H1550.21L1526.15 1278.49H1686.28L1664.66 1352.67H1504.8L1483.44 1423.87H1658.28L1634.46 1494.86H1361.86V1494.84V1494.84ZM1192.66 1276.51H1259.95C1313.73 1276.51 1335.59 1213.41 1270.75 1213.41H1210.83L1192.66 1276.51ZM1029.36 1494.84L1132.01 1139.25H1289.17C1357.2 1139.25 1384.95 1175.36 1390.1 1221.52C1396.74 1279.74 1362.6 1311.66 1335.59 1326.88C1347.62 1339.17 1349.35 1349.48 1352.05 1375.26C1355.24 1404.98 1346.39 1420.2 1326.76 1494.86H1233.68L1260.7 1408.66C1271.75 1373.29 1271.01 1349.23 1228.28 1349.23H1177.94L1133.01 1494.87H1029.36V1494.84V1494.84ZM715.516 1494.84L818.418 1139.25H1093.95L1072.83 1210.47H903.863L879.804 1278.49H1039.92L1018.55 1352.67H858.443L837.328 1423.87H1012.16L988.102 1494.86H715.516V1494.84V1494.84ZM480.997 1494.84L413.217 1139.24H525.937L568.66 1378.44L792.142 1005.16H898.961L602.563 1494.83H480.997V1494.84ZM36.7695 1494.84L139.659 1139.25H415.188L394.074 1210.47H225.116L201.291 1278.49H361.156L339.795 1352.67H179.683L158.556 1423.87H333.401L309.342 1494.86H36.7695V1494.84V1494.84ZM1691.66 1423.61L1665.88 1494.34H1912.92C1984.14 1494.34 2017.29 1445.47 2021.71 1389.75C2025.16 1346.03 1974.32 1287.82 1923.23 1287.82H1874.13C1858.66 1287.82 1834.35 1268.44 1835.82 1251.49C1837.28 1233.8 1858.18 1211.7 1883.95 1211.7H2086.3L2109.39 1139.25H1856.7C1809.54 1139.25 1755.77 1193.02 1752.58 1240.18C1749.14 1291.76 1797.52 1350.45 1861.86 1350.45H1896.98C1913.68 1350.45 1939.71 1366.9 1937.5 1385.56C1935.78 1401.01 1917.36 1423.61 1902.64 1423.61H1691.66V1423.61Z" fill="black"/>
<path fill-rule="evenodd" clip-rule="evenodd" d="M582.252 1306.65L560.891 1168.89L657.891 1005.34H764.71L582.252 1306.65Z" fill="#CC2229"/>
</svg>
