<svg width="2500" height="2500" viewBox="0 0 2500 2500" fill="none" xmlns="http://www.w3.org/2000/svg">
<path fill-rule="evenodd" clip-rule="evenodd" d="M532.266 761.546H845.732L882.229 906.626L998.737 494.226H1281.43L1029.96 1425.43H767.914L532.266 761.546ZM793.853 1500.61L648.761 2005.77H897.612L993.458 1500.61H793.853V1500.61ZM210.434 1650.96L249.564 1497.96H519.063L565.676 1500.61L607.439 1510.72L625.467 1518.63L643.495 1531.82L656.685 1547.2L669.434 1567.88L677.346 1588.54L682.625 1609.18V1630.31L679.979 1650.96H529.62L526.975 1645.69L516.43 1622.39L508.96 1614.48L498.402 1609.18H371.35L360.793 1650.96H210.434ZM161.188 1840.01L210.434 1650.96L360.793 1653.59L350.689 1694.94H464.551L490.491 1692.3L511.151 1684.37L524.342 1669L529.62 1653.59H679.979L672.067 1671.63L661.964 1689.66L646.128 1710.31L628.1 1726.15L604.806 1736.25L578.867 1744.17L599.527 1754.72L617.555 1772.76L636.024 1801.33L643.495 1835.17V1837.37H493.123V1821.99L485.225 1809.26L480.387 1801.33L469.83 1798.7L451.802 1790.79H327.383L314.193 1837.37L161.188 1840.01V1840.01Z" fill="#28539C"/>
<path fill-rule="evenodd" clip-rule="evenodd" d="M161.188 1840.01L127.778 1956.54L109.309 2003.12H503.681L539.737 1997.85L573.588 1985.11L594.249 1971.91L610.085 1956.54L620.188 1938.5L630.746 1920.49L640.862 1879.15L643.495 1837.37H493.123L490.49 1853.21L485.225 1860.68L475.095 1868.61L454.448 1879.15L353.322 1881.78H304.076L314.192 1837.37L161.188 1840.01V1840.01ZM1180.31 1500.61H1353.98L1431.8 1780.66L1499.07 1500.61H1667.44L1535.11 2005.77H1356.61L1286.72 1718.23L1221.65 1959.17L1141.62 1663.72L1180.31 1500.61V1500.61ZM2107.99 1500.61L1807.26 1798.7L1954.98 2005.77H1768.57L1599.74 1783.29L1890.37 1500.61H2107.99V1500.61ZM2027.97 1938.5L2017.43 1928.4L2012.14 1912.56L2022.7 1889.25L2040.74 1876.52L2061.39 1871.24H2084.68L2103.15 1876.52L2113.27 1889.25L2115.9 1899.81L2113.27 1912.56H2089.96V1902.46L2084.68 1894.55L2069.31 1886.62L2048.64 1891.89L2043.37 1899.81L2040.74 1907.72V1912.56L2046.01 1917.83L2071.95 1925.75L2084.68 1928.4L2095.25 1936.3L2027.97 1938.5ZM2185.81 1936.3L2224.95 1879.15L2227.58 1876.52H2248.26L2250.89 1891.89L2258.36 1936.3H2232.42L2227.58 1912.56L2211.75 1936.3H2185.81Z" fill="#28539C"/>
<path fill-rule="evenodd" clip-rule="evenodd" d="M2027.97 1938.5L2048.64 1943.77L2066.68 1949.06L2074.58 1953.89L2077.21 1959.17L2074.58 1971.91L2066.68 1979.83L2046.01 1982.48L2030.17 1979.83L2020.07 1971.91V1959.17H2009.51L1999.39 1956.54L1994.13 1964.01V1979.83L1999.39 1987.32L2012.14 2000.48L2046.01 2003.12L2064.02 1997.85L2082.05 1989.95L2095.25 1977.2L2103.15 1956.54L2100.52 1943.77L2095.25 1936.29L2027.97 1938.5V1938.5ZM2185.81 1936.29L2167.81 1961.81L2141.84 2000.48H2155.03L2170.44 1997.85L2185.81 1974.54H2237.69L2242.97 1997.85H2266.26L2258.36 1936.29H2232.42V1953.89H2201.64V1949.06L2211.75 1936.29H2185.81V1936.29Z" fill="#28539C"/>
<path fill-rule="evenodd" clip-rule="evenodd" d="M793.853 1500.61H1053.25L1193.5 2005.77H939.387L793.853 1500.61V1500.61ZM174.379 906.626H324.737L192.406 1425.43H36.7563L174.379 906.626V906.626ZM882.229 906.626L739.341 1425.43H552.927L475.095 1158.11L397.277 1425.43H244.286L384.1 906.626H550.281L638.216 1184.05L723.946 906.626H882.229V906.626ZM1452.46 1295.73L1419.05 1422.77H1079.19L1113.05 1295.73H1452.46ZM1169.76 1101.39H1506.97L1470.93 1233.29H1133.71L1169.76 1101.39ZM1221.65 903.993H1561.05L1520.17 1041.6H1182.95L1221.65 903.993ZM2432.47 1031.06H2286.93L2183.17 1425.43H2027.97L2129.09 1031.06H1996.76L2030.17 906.626H2463.24L2432.47 1031.06V1031.06ZM1986.2 906.626L1952.78 1033.69H1734.73L1716.69 1038.97L1703.5 1049.51L1698.66 1059.63V1070.19L1703.5 1077.66L1729.44 1093.48L1765.94 1106.23L1846.39 1124.7L1890.37 1132.17L1911.04 1142.73L1929.04 1152.83L1944.88 1166.02L1954.98 1181.42L1973.45 1215.27L1980.92 1253.97L1978.72 1295.73L1968.19 1334.42L1944.88 1368.26L1929.04 1383.67L1913.68 1396.83L1887.71 1409.61L1861.8 1417.5L1833.2 1422.77L1801.99 1425.43H1468.29L1499.07 1305.85L1815.18 1303.64L1838.49 1295.73L1846.39 1287.81L1849.02 1272.42L1843.76 1261.87L1833.2 1251.76L1801.99 1238.57L1711.43 1220.55L1662.18 1204.71L1638.87 1191.96L1618.21 1178.78L1599.74 1160.76L1584.36 1140.08L1576.44 1111.51L1571.62 1080.29V1038.97L1584.36 1002.47L1607.67 974.341L1636.24 948.401L1670.09 929.932L1708.79 914.537L1747.91 906.626H1986.2V906.626Z" fill="#00ACEC"/>
</svg>
