<svg width="2500" height="2500" viewBox="0 0 2500 2500" fill="none" xmlns="http://www.w3.org/2000/svg">
<path fill-rule="evenodd" clip-rule="evenodd" d="M138.945 1565.49H699.486V929.336H138.945V1565.49Z" fill="#1E70A2"/>
<path fill-rule="evenodd" clip-rule="evenodd" d="M364.814 1065.06L531.631 1028.8L511.956 1065.06H364.814ZM520.23 1476.4C532.655 1462.92 544.056 1446.34 555.456 1428.72L510.905 1390.4L305.762 1476.4H520.23Z" fill="white"/>
<path fill-rule="evenodd" clip-rule="evenodd" d="M573.082 1399.72C516.093 1336.52 392.803 1386.25 329.601 1441.16L397.977 1317.87L610.37 1297.15C603.12 1333.41 589.658 1367.6 573.082 1399.72V1399.72ZM612.446 1284.72C563.744 1236.02 471.542 1260.88 406.265 1303.37L463.254 1200.79L609.346 1186.29C617.633 1218.41 617.633 1251.56 612.446 1284.72ZM605.195 1170.74C572.045 1139.67 512.98 1158.32 471.542 1186.28L520.23 1099.25L560.644 1095.12C581.37 1117.9 596.908 1143.8 605.195 1170.74ZM391.765 1210.12C413.528 1187.33 439.429 1171.78 453.929 1184.22L487.08 1125.15L435.279 1130.34L391.765 1210.12ZM342.026 1387.29C330.625 1375.88 303.687 1388.32 279.862 1411.12L318.2 1341.68L370.002 1336.52L342.026 1387.29ZM325.451 1328.23C349.276 1305.43 377.265 1291.96 389.69 1302.32L436.316 1216.33L384.502 1221.52L325.451 1328.23V1328.23Z" fill="white"/>
<path fill-rule="evenodd" clip-rule="evenodd" d="M842.464 1024.65H866.289C911.878 1024.65 934.666 1047.44 934.666 1097.18C934.666 1148.98 897.378 1162.45 872.502 1162.45C860.077 1162.45 848.676 1158.32 842.464 1155.2V1024.65ZM803.088 1283.68H765.8V1289.89H881.84V1283.68H842.464V1162.45C850.752 1166.59 865.252 1168.67 878.714 1168.67C925.341 1168.67 976.117 1147.94 976.117 1094.06C976.117 1038.11 932.604 1019.48 874.577 1019.48H765.787V1024.65H803.075V1283.68H803.088V1283.68ZM1030.01 1024.65H995.805V1019.48H1104.6V1024.65H1069.37V1283.68H1104.6V1289.88H995.805V1283.68H1030.01V1024.65ZM1159.51 1154.17C1159.51 1104.44 1168.84 1019.48 1237.21 1019.48C1306.63 1019.48 1314.94 1104.43 1314.94 1154.17C1314.94 1204.93 1306.63 1289.88 1237.21 1289.88C1168.84 1289.88 1159.51 1204.93 1159.51 1154.17ZM1115.98 1154.17C1115.98 1232.91 1172.97 1296.12 1237.21 1296.12C1302.5 1296.12 1359.46 1232.91 1359.46 1154.17C1359.46 1075.43 1302.49 1013.26 1237.21 1013.26C1172.97 1013.26 1115.98 1075.41 1115.98 1154.17ZM1409.19 1037.09H1408.18V1261.92C1408.18 1280.57 1414.39 1283.68 1431.99 1283.68H1447.54V1289.89H1364.65V1283.68H1378.1C1395.73 1283.68 1401.94 1280.57 1401.94 1261.92V1024.65H1364.65V1019.48H1445.45L1591.55 1219.43V1046.41C1591.55 1029.84 1588.43 1024.66 1571.86 1024.66H1554.26V1019.49H1635.06V1024.66H1618.47C1600.87 1024.66 1597.77 1029.84 1597.77 1046.41V1291.97H1592.58L1409.19 1037.09V1037.09Z" fill="#1E70A2"/>
<path fill-rule="evenodd" clip-rule="evenodd" d="M1664.09 1024.65H1629.88V1019.48H1835.04L1839.19 1084.75H1834C1834 1040.2 1803.96 1024.66 1763.55 1024.66H1703.44V1148.99H1732.46C1771.83 1148.99 1775.98 1125.17 1775.98 1100.3H1782.19V1201.84H1775.98C1775.98 1172.83 1771.83 1155.22 1731.41 1155.22H1703.42V1283.7H1756.26C1818.43 1283.7 1848.49 1276.45 1848.49 1211.17H1854.7V1289.91H1629.86V1283.7H1664.06V1024.65H1664.09V1024.65ZM1905.49 1024.65H1871.29V1019.48H2076.46L2080.61 1084.75H2074.38C2074.38 1040.2 2045.38 1024.66 2004.97 1024.66H1943.84V1148.99H1972.84C2013.24 1148.99 2017.41 1125.17 2017.41 1100.3H2023.62V1201.84H2017.41C2017.41 1172.83 2013.26 1155.22 1972.84 1155.22H1943.84V1283.7H1996.68C2058.85 1283.7 2088.88 1276.45 2088.88 1211.17H2095.1V1289.91H1871.29V1283.7H1905.49V1024.65V1024.65ZM2193.54 1024.65H2219.43C2274.34 1024.65 2284.7 1056.78 2284.7 1086.81C2284.7 1131.37 2257.78 1147.94 2212.17 1147.94H2193.52V1024.65H2193.54ZM2154.15 1283.68H2115.82V1289.9H2232.9V1283.68H2193.54V1153.13H2218.39C2261.9 1153.13 2268.14 1175.92 2271.23 1199.74L2274.34 1222.54C2279.53 1267.08 2281.59 1291.96 2329.25 1291.96C2342.73 1291.96 2353.09 1289.88 2360.33 1286.8L2358.25 1281.61C2354.1 1283.68 2348.93 1285.76 2342.73 1285.76C2335.45 1285.76 2325.1 1284.72 2322 1261.92L2316.82 1215.29C2311.65 1164.52 2287.81 1154.17 2243.25 1151.05V1150.02C2271.21 1145.88 2326.14 1134.48 2326.14 1086.81C2326.14 1028.79 2277.45 1019.48 2233.94 1019.48H2115.82V1024.65H2154.15V1283.68V1283.68ZM804.125 1339.63H774.087V1334.45H866.289V1339.63H837.276V1557.2H866.289V1562.38H774.087V1557.2H804.125V1339.63V1339.63ZM904.628 1434.96H878.715V1429.77H904.628C920.166 1429.77 925.354 1429.77 931.566 1422.52V1455.69H932.604C940.892 1440.14 957.467 1422.52 980.268 1422.52C1015.49 1422.52 1024.83 1440.12 1024.83 1458.77V1557.22H1050.73V1562.38H971.993V1557.22H997.894V1451.54C997.894 1433.94 988.568 1427.7 978.206 1427.7C951.267 1427.7 937.792 1454.65 931.579 1466.05V1557.22H956.442V1562.38H878.727V1557.22H904.641V1434.96H904.628ZM1064.18 1434.96H1045.53V1429.77H1119.1V1434.96H1095.27L1136.71 1533.38L1167.78 1460.85C1171.93 1452.56 1172.97 1447.37 1172.97 1443.25C1172.97 1436 1164.68 1434.96 1158.46 1434.96H1147.06V1429.77H1204.05V1434.96C1189.53 1434.96 1185.4 1436 1178.15 1451.52L1125.31 1570.69H1123.23L1064.18 1434.96ZM1294.19 1474.33C1294.19 1475.36 1293.15 1476.4 1292.14 1476.4H1237.21V1468.09C1237.21 1447.36 1244.47 1427.69 1267.26 1427.69C1289.03 1427.69 1294.19 1447.37 1294.19 1468.09V1474.33V1474.33ZM1237.21 1481.56H1322.18C1324.25 1481.56 1325.26 1480.52 1325.26 1479.49C1325.26 1465 1305.58 1422.51 1267.25 1422.51C1232.02 1422.51 1206.12 1462.91 1206.12 1495.04C1206.12 1537.51 1233.06 1566.53 1271.41 1566.53C1300.41 1566.53 1323.21 1546.84 1328.39 1516.8H1323.23C1318.04 1542.69 1298.35 1561.37 1271.43 1561.37C1240.34 1561.37 1237.22 1535.45 1237.22 1512.65V1481.56H1237.21V1481.56ZM1354.3 1515.76H1358.43C1360.5 1532.33 1368.79 1561.37 1402.99 1561.37C1420.59 1561.37 1435.12 1549.97 1435.12 1531.3C1435.12 1505.41 1415.43 1505.41 1397.83 1503.34C1377.1 1501.26 1356.37 1498.18 1356.37 1463.98C1356.37 1441.17 1371.92 1422.54 1396.79 1422.54C1414.39 1422.54 1426.83 1433.94 1429.93 1433.94C1432 1433.94 1432 1431.86 1432 1426.66V1424.61H1436.16L1438.23 1462.94H1434.08C1430.97 1444.29 1421.64 1427.7 1395.75 1427.7C1379.17 1427.7 1366.75 1437.02 1366.75 1453.61C1366.75 1470.18 1379.17 1476.41 1399.89 1477.43L1411.29 1478.46C1437.21 1479.5 1448.61 1494.01 1448.61 1516.81C1448.61 1546.85 1427.88 1566.54 1403 1566.54C1378.13 1566.54 1369.84 1553.06 1363.64 1553.06C1359.49 1553.06 1360.53 1558.25 1359.49 1564.47H1354.33V1515.76H1354.3V1515.76ZM1492.11 1434.96H1463.08V1429.77C1497.28 1430.81 1509.72 1416.3 1514.88 1384.17H1519.03V1429.77H1563.6V1434.96H1519.03V1543.74C1519.03 1557.22 1524.22 1561.37 1534.58 1561.37C1551.14 1561.37 1558.4 1546.85 1560.47 1540.61L1564.62 1541.65C1562.55 1549.96 1553.22 1566.53 1529.38 1566.53C1506.58 1566.53 1492.09 1559.28 1492.09 1537.53V1434.96H1492.11V1434.96ZM1568.76 1557.2H1594.67V1434.95H1568.76V1429.76H1594.67C1610.2 1429.76 1615.4 1429.76 1621.6 1422.51V1454.64C1630.92 1438.05 1644.4 1422.51 1668.24 1422.51C1688.96 1422.51 1710.71 1428.72 1712.8 1457.72H1713.84C1720.05 1439.07 1736.61 1422.51 1760.45 1422.51C1793.61 1422.51 1805.02 1442.2 1805.02 1461.87V1557.2H1830.9V1562.36H1752.18V1557.2H1778.06V1456.69C1778.06 1432.87 1767.7 1427.69 1755.26 1427.69C1736.61 1427.69 1720.05 1448.41 1712.81 1471.2V1557.2H1737.66V1562.36H1659.97V1557.2H1685.86V1450.47C1685.86 1433.91 1677.57 1427.67 1665.14 1427.67C1645.45 1427.67 1630.93 1443.22 1621.62 1466.02V1557.19H1646.5V1562.35H1568.78V1557.2H1568.76V1557.2ZM1927.26 1474.33C1927.26 1475.36 1926.22 1476.4 1925.18 1476.4H1871.3V1468.09C1871.3 1447.36 1877.53 1427.69 1900.33 1427.69C1922.09 1427.69 1927.26 1447.37 1927.26 1468.09V1474.33V1474.33ZM1871.29 1481.56H1955.22C1957.29 1481.56 1958.33 1480.52 1958.33 1479.49C1958.33 1465 1938.64 1422.51 1900.32 1422.51C1865.08 1422.51 1840.2 1462.91 1840.2 1495.04C1840.2 1537.51 1866.12 1566.53 1904.44 1566.53C1934.48 1566.53 1956.24 1546.84 1961.44 1516.8H1956.26C1952.13 1542.69 1931.41 1561.37 1904.45 1561.37C1873.38 1561.37 1870.28 1535.45 1871.29 1512.65V1481.56V1481.56ZM1994.61 1434.96H1968.69V1429.77H1994.61C2010.13 1429.77 2015.33 1429.77 2021.53 1422.52V1455.69C2030.86 1440.14 2046.41 1422.52 2070.25 1422.52C2104.42 1422.52 2114.78 1440.12 2114.78 1458.77V1557.22H2140.7V1562.38H2061.95V1557.22H2087.86V1451.54C2087.86 1433.94 2078.53 1427.7 2068.17 1427.7C2041.22 1427.7 2026.73 1454.65 2021.53 1466.05V1557.22H2046.41V1562.38H1968.69V1557.22H1994.61V1434.96V1434.96ZM2175.94 1434.96H2147.95V1429.77C2181.11 1430.81 2193.55 1416.3 2199.75 1384.17H2202.86V1429.77H2247.43V1434.96H2202.86V1543.74C2202.86 1557.22 2209.08 1561.37 2219.43 1561.37C2234.98 1561.37 2242.23 1546.85 2244.3 1540.61L2249.49 1541.65C2247.41 1549.96 2237.05 1566.53 2213.21 1566.53C2190.41 1566.53 2175.92 1559.28 2175.92 1537.53V1434.96H2175.94V1434.96ZM2260.86 1515.76H2265.01C2268.13 1532.33 2276.41 1561.37 2310.62 1561.37C2328.22 1561.37 2341.69 1549.97 2341.69 1531.3C2341.69 1505.41 2322 1505.41 2305.41 1503.34C2283.65 1501.26 2263.98 1498.18 2263.98 1463.98C2263.98 1441.17 2278.49 1422.54 2304.38 1422.54C2322 1422.54 2333.4 1433.94 2336.5 1433.94C2338.58 1433.94 2339.62 1431.86 2339.62 1426.66V1424.61H2343.74L2344.78 1462.94H2340.65C2338.58 1444.29 2329.25 1427.7 2303.34 1427.7C2286.78 1427.7 2273.3 1437.02 2273.3 1453.61C2273.3 1470.18 2285.74 1476.41 2307.5 1477.43L2318.9 1478.46C2344.79 1479.5 2355.15 1494.01 2355.15 1516.81C2355.15 1546.85 2335.47 1566.54 2310.62 1566.54C2284.7 1566.54 2277.45 1553.06 2270.19 1553.06C2266.06 1553.06 2267.1 1558.25 2267.1 1564.47H2261.91L2260.86 1515.76V1515.76ZM2389.35 1385.21C2402.83 1385.21 2414.23 1396.61 2414.23 1410.09C2414.23 1423.56 2402.83 1434.96 2389.35 1434.96C2375.88 1434.96 2364.48 1423.56 2364.48 1410.09C2364.48 1396.61 2375.88 1385.21 2389.35 1385.21ZM2389.35 1381.07C2373.83 1381.07 2360.35 1394.52 2360.35 1410.07C2360.35 1425.62 2373.83 1439.07 2389.35 1439.07C2404.91 1439.07 2418.36 1425.62 2418.36 1410.07C2418.36 1394.52 2404.91 1381.07 2389.35 1381.07ZM2375.88 1425.64H2389.35V1423.56H2387.28C2385.23 1423.56 2385.23 1423.56 2385.23 1419.41V1411.12H2389.35C2395.58 1419.41 2397.64 1425.64 2399.72 1425.64H2404.91V1423.56C2402.83 1423.56 2400.76 1420.45 2398.68 1417.34L2394.56 1411.12C2397.64 1410.09 2400.77 1406.97 2400.77 1402.84C2400.77 1396.61 2395.61 1394.52 2390.41 1394.52H2375.89V1395.56H2376.93C2379 1395.56 2380.04 1396.6 2380.04 1399.71V1419.4C2380.04 1423.55 2379 1423.55 2376.93 1423.55H2375.89V1425.64H2375.88V1425.64ZM2385.22 1395.57H2388.3C2392.45 1395.57 2395.58 1397.65 2395.58 1401.8C2395.58 1406.96 2393.51 1410.09 2389.35 1410.09H2385.23V1395.57H2385.22Z" fill="#1E70A2"/>
</svg>
