<svg width="633" height="633" viewBox="0 0 633 633" fill="none" xmlns="http://www.w3.org/2000/svg">
<rect width="633" height="633" rx="61" fill="#18376A"/>
<path d="M314.934 492C300.936 492 280.428 492 253.41 492C226.392 492 206.372 492 193.352 492C178.703 492 159.09 492 134.514 492C109.937 492 96.265 492 93.498 492C93.498 486.629 93.498 465.714 93.498 429.256C93.498 392.798 93.498 352.596 93.498 308.65C93.498 287.492 93.498 262.915 93.498 234.92C93.498 206.762 93.498 183.488 93.498 165.096C100.822 165.096 115.796 165.096 138.42 165.096C161.206 165.096 181.877 165.096 200.432 165.096C219.312 165.096 240.227 165.096 263.176 165.096C286.288 165.096 302.645 165.096 312.248 165.096V253.475C305.087 253.475 297.925 253.475 290.764 253.475C283.765 253.475 273.348 253.475 259.514 253.475C251.701 253.475 242.912 253.475 233.146 253.475C223.544 253.475 214.755 253.475 206.779 253.475C206.779 259.171 206.779 265.926 206.779 273.738C206.779 281.551 206.779 289.038 206.779 296.199C215.243 296.199 224.032 296.199 233.146 296.199C242.424 296.199 249.667 296.199 254.875 296.199C263.501 296.199 272.29 296.199 281.242 296.199C290.194 296.199 299.064 296.199 307.854 296.199V358.699C299.878 358.699 291.496 358.699 282.707 358.699C274.081 358.699 265.373 358.699 256.584 358.699C247.469 358.699 239.087 358.699 231.438 358.699C223.951 358.699 215.731 358.699 206.779 358.699C206.779 365.21 206.779 373.185 206.779 382.625C206.779 391.902 206.779 398.82 206.779 403.377C213.941 403.377 223.218 403.458 234.611 403.621C246.005 403.621 254.875 403.621 261.223 403.621C267.733 403.621 275.871 403.621 285.637 403.621C295.565 403.458 305.331 403.377 314.934 403.377V492Z" fill="white"/>
<path d="M542.961 258.602C535.637 258.602 528.068 258.602 520.256 258.602C512.606 258.602 504.956 258.602 497.307 258.602C486.402 258.602 477.206 258.602 469.719 258.602C462.395 258.602 454.989 258.602 447.502 258.602C447.502 263.973 447.421 270.971 447.258 279.598C447.258 288.224 447.258 296.443 447.258 304.256C456.861 304.256 467.521 304.256 479.24 304.256C491.122 304.256 496.737 304.256 496.086 304.256C493.319 304.256 497.795 304.256 509.514 304.256C521.395 304.256 531.73 304.256 540.52 304.256V374.08C532.382 374.08 521.721 374.08 508.537 374.08C495.354 374.08 490.878 374.08 495.109 374.08C497.388 374.08 492.749 374.08 481.193 374.08C469.8 374.08 459.872 374.08 451.408 374.08C451.408 384.822 451.49 403.458 451.652 429.988C451.815 456.518 451.815 477.189 451.652 492H331.779C331.779 481.583 331.779 459.285 331.779 425.105C331.942 390.763 332.023 358.699 332.023 328.914C332.023 307.592 331.942 281.876 331.779 251.766C331.779 221.655 331.779 192.765 331.779 165.096C338.452 165.096 352.124 165.096 372.795 165.096C393.465 165.096 415.113 165.096 437.736 165.096C454.338 165.096 473.544 165.096 495.354 165.096C517.163 165.096 533.033 165.096 542.961 165.096V258.602Z" fill="#00ACEC"/>
</svg>
