<svg width="7800" height="4284" viewBox="0 0 7800 4284" fill="none" xmlns="http://www.w3.org/2000/svg">
<rect width="7800" height="4284" fill="#F7F7F7"/>
<rect x="2786" y="1347" width="633" height="633" rx="61" fill="#18376A"/>
<path d="M3100.93 1839C3086.94 1839 3066.43 1839 3039.41 1839C3012.39 1839 2992.37 1839 2979.35 1839C2964.7 1839 2945.09 1839 2920.51 1839C2895.94 1839 2882.26 1839 2879.5 1839C2879.5 1833.63 2879.5 1812.71 2879.5 1776.26C2879.5 1739.8 2879.5 1699.6 2879.5 1655.65C2879.5 1634.49 2879.5 1609.91 2879.5 1581.92C2879.5 1553.76 2879.5 1530.49 2879.5 1512.1C2886.82 1512.1 2901.8 1512.1 2924.42 1512.1C2947.21 1512.1 2967.88 1512.1 2986.43 1512.1C3005.31 1512.1 3026.23 1512.1 3049.18 1512.1C3072.29 1512.1 3088.65 1512.1 3098.25 1512.1V1600.47C3091.09 1600.47 3083.93 1600.47 3076.76 1600.47C3069.76 1600.47 3059.35 1600.47 3045.51 1600.47C3037.7 1600.47 3028.91 1600.47 3019.15 1600.47C3009.54 1600.47 3000.75 1600.47 2992.78 1600.47C2992.78 1606.17 2992.78 1612.93 2992.78 1620.74C2992.78 1628.55 2992.78 1636.04 2992.78 1643.2C3001.24 1643.2 3010.03 1643.2 3019.15 1643.2C3028.42 1643.2 3035.67 1643.2 3040.88 1643.2C3049.5 1643.2 3058.29 1643.2 3067.24 1643.2C3076.19 1643.2 3085.06 1643.2 3093.85 1643.2V1705.7C3085.88 1705.7 3077.5 1705.7 3068.71 1705.7C3060.08 1705.7 3051.37 1705.7 3042.58 1705.7C3033.47 1705.7 3025.09 1705.7 3017.44 1705.7C3009.95 1705.7 3001.73 1705.7 2992.78 1705.7C2992.78 1712.21 2992.78 1720.18 2992.78 1729.62C2992.78 1738.9 2992.78 1745.82 2992.78 1750.38C2999.94 1750.38 3009.22 1750.46 3020.61 1750.62C3032 1750.62 3040.88 1750.62 3047.22 1750.62C3053.73 1750.62 3061.87 1750.62 3071.64 1750.62C3081.57 1750.46 3091.33 1750.38 3100.93 1750.38V1839Z" fill="white"/>
<path d="M3328.96 1605.6C3321.64 1605.6 3314.07 1605.6 3306.26 1605.6C3298.61 1605.6 3290.96 1605.6 3283.31 1605.6C3272.4 1605.6 3263.21 1605.6 3255.72 1605.6C3248.39 1605.6 3240.99 1605.6 3233.5 1605.6C3233.5 1610.97 3233.42 1617.97 3233.26 1626.6C3233.26 1635.22 3233.26 1643.44 3233.26 1651.26C3242.86 1651.26 3253.52 1651.26 3265.24 1651.26C3277.12 1651.26 3282.74 1651.26 3282.09 1651.26C3279.32 1651.26 3283.79 1651.26 3295.51 1651.26C3307.4 1651.26 3317.73 1651.26 3326.52 1651.26V1721.08C3318.38 1721.08 3307.72 1721.08 3294.54 1721.08C3281.35 1721.08 3276.88 1721.08 3281.11 1721.08C3283.39 1721.08 3278.75 1721.08 3267.19 1721.08C3255.8 1721.08 3245.87 1721.08 3237.41 1721.08C3237.41 1731.82 3237.49 1750.46 3237.65 1776.99C3237.82 1803.52 3237.82 1824.19 3237.65 1839H3117.78C3117.78 1828.58 3117.78 1806.29 3117.78 1772.11C3117.94 1737.76 3118.02 1705.7 3118.02 1675.91C3118.02 1654.59 3117.94 1628.88 3117.78 1598.77C3117.78 1568.65 3117.78 1539.76 3117.78 1512.1C3124.45 1512.1 3138.12 1512.1 3158.79 1512.1C3179.47 1512.1 3201.11 1512.1 3223.74 1512.1C3240.34 1512.1 3259.54 1512.1 3281.35 1512.1C3303.16 1512.1 3319.03 1512.1 3328.96 1512.1V1605.6Z" fill="#00ACEC"/>
</svg>
